<svg width="105" height="89" fill="none" xmlns="http://www.w3.org/2000/svg"><path d="M71.394 48.605c2.586.745 5.172 1.122 7.688 1.122 3.885 0 7.126-.887 9.64-1.974-2.424 8.87-8.245 24.177-19.84 25.9a2.755 2.755 0 00-2.247 1.982L64.1 84.699a2.752 2.752 0 002.277 3.47c.856.117 1.728.176 2.593.176 13.918 0 27.703-14.527 33.519-35.329 3.414-12.203 4.415-30.55-3.995-42.1C93.79 4.456 86.923 1.005 78.087.66L77.98.657C67.078.657 57.411 8 54.47 18.51c-1.756 6.284-.962 12.873 2.239 18.56 3.166 5.623 8.382 9.721 14.686 11.535zM3.153 37.069c3.166 5.624 8.381 9.722 14.686 11.536 2.586.745 5.172 1.122 7.686 1.122 3.885 0 7.128-.887 9.64-1.974-2.422 8.87-8.243 24.177-19.84 25.9a2.757 2.757 0 00-2.247 1.982l-2.534 9.064a2.753 2.753 0 002.278 3.47c.855.117 1.727.176 2.593.176 13.918 0 27.702-14.527 33.52-35.329 3.413-12.203 4.414-30.55-3.997-42.101C40.232 4.454 33.365 1.002 24.53.658l-.11-.002C13.522.656 3.854 7.998.913 18.51a24.281 24.281 0 002.24 18.56z" fill="#F5F7FC"/></svg>