<svg width="18" height="18" viewBox="0 0 18 18" fill="none" xmlns="http://www.w3.org/2000/svg"><path d="M10.375 6.384l1.286 1.286c.399.4.576.887.576 1.375 0 .532-.222.975-.62 1.374l-1.242 1.241c-.355.355-.798.532-1.33.532s-.975-.177-1.374-.576L6.385 10.33c-.355-.354-.532-.798-.576-1.374 0-.532.177-.975.532-1.33l1.241-1.242a1.945 1.945 0 011.374-.576c.577.044 1.02.222 1.42.576zm.887 9c-.4-.4-.577-.843-.577-1.42 0-.575.178-1.063.577-1.418l1.241-1.241c.4-.4.843-.576 1.419-.576.576 0 1.064.177 1.419.576l2.66 2.66-.843.842-2.66-2.66a.734.734 0 00-.532-.221c-.266 0-.443.088-.576.221l-1.241 1.242a.734.734 0 00-.222.532c0 .221.089.399.222.532l2.66 2.66-.887.886-2.66-2.615zM4.079 7.315c-.577 0-1.064-.177-1.419-.576L0 4.079l.842-.842 2.66 2.66c.133.133.31.221.532.221.266 0 .444-.088.577-.221l1.241-1.242a.734.734 0 00.222-.532.734.734 0 00-.222-.532L3.192.931 4.08.044l2.66 2.66c.399.4.576.843.576 1.42 0 .576-.177 1.063-.576 1.418L5.497 6.783a2.091 2.091 0 01-1.418.532zm9.842 0c-.576 0-1.064-.177-1.418-.576L11.26 5.498c-.399-.4-.576-.843-.576-1.42 0-.576.177-1.063.576-1.418L13.921 0l.843.842-2.66 2.66a.734.734 0 00-.222.532c0 .222.088.4.222.577l1.24 1.197a.738.738 0 00.533.222.734.734 0 00.532-.222l2.66-2.66.887.886-2.66 2.66c-.355.444-.843.621-1.375.621zM3.192 17.157l2.66-2.66a.734.734 0 00.222-.532c0-.221-.089-.399-.222-.576l-1.241-1.241a.734.734 0 00-.532-.222.734.734 0 00-.532.222l-2.66 2.66L0 13.92l2.66-2.66c.4-.4.842-.576 1.419-.576.576 0 1.064.177 1.418.576l1.242 1.241c.399.4.576.843.576 1.419 0 .576-.177 1.064-.576 1.419L4.079 18l-.887-.843z" fill="#E78238"/></svg>