<svg width="24" height="24" viewBox="0 0 24 24" fill="none" xmlns="http://www.w3.org/2000/svg"><g clip-path="url(#clip0)" fill="#57B7C3"><path d="M12 24c6.616 0 12-5.383 12-12 0-1.142-.16-2.268-.475-3.345a1 1 0 10-1.92.561c.262.896.395 1.833.395 2.784 0 5.514-4.486 10-10 10S2 17.514 2 12 6.486 2 12 2c2.004 0 3.932.586 5.575 1.694a1 1 0 001.119-1.658A11.925 11.925 0 0012 0C5.384 0 0 5.383 0 12s5.384 12 12 12z"/><path d="M21.293 3.73L11 14.023 7.707 10.73a1 1 0 00-1.414 1.414l4 4a.995.995 0 001.414 0l11-11a1 1 0 00-1.414-1.414z"/></g><defs><clipPath id="clip0"><path fill="#fff" d="M0 0h24v24H0z"/></clipPath></defs></svg>