<svg width="254" height="29" viewBox="0 0 254 29" fill="none" xmlns="http://www.w3.org/2000/svg"><path d="M15.85 10.641l1.964 2.007c.61.622.88 1.383.88 2.144 0 .83-.338 1.522-.947 2.144l-1.897 1.937c-.542.553-1.22.83-2.032.83-.813 0-1.49-.277-2.1-.9l-1.964-2.005c-.542-.553-.813-1.245-.88-2.144 0-.83.27-1.522.812-2.076l1.897-1.937a2.942 2.942 0 012.1-.899c.88.07 1.558.346 2.167.9zm1.354 14.043c-.61-.623-.88-1.315-.88-2.214 0-.9.27-1.66.88-2.213L19.1 18.32c.61-.623 1.287-.9 2.168-.9.88 0 1.625.277 2.167.9l4.064 4.15-1.287 1.314-4.064-4.15a1.11 1.11 0 00-.813-.346c-.406 0-.677.138-.88.346l-1.897 1.937a1.157 1.157 0 00-.338.83c0 .346.135.622.338.83l4.064 4.15-1.354 1.384-4.064-4.081zM6.231 12.092c-.88 0-1.625-.276-2.167-.899L0 7.043l1.287-1.314 4.064 4.15c.203.207.474.346.813.346.406 0 .677-.139.88-.346l1.897-1.937c.203-.207.338-.484.338-.83s-.135-.623-.338-.83l-4.064-4.15L6.23.748l4.065 4.15c.61.623.88 1.315.88 2.214 0 .9-.27 1.66-.88 2.213l-1.897 1.937c-.61.554-1.355.83-2.168.83zm15.037.001c-.88 0-1.626-.277-2.168-.899l-1.896-1.937c-.61-.622-.88-1.314-.88-2.213 0-.9.27-1.66.88-2.214L21.268.68l1.287 1.314-4.064 4.15a1.158 1.158 0 00-.339.83c0 .346.136.623.339.9l1.896 1.867c.203.208.474.346.813.346.339 0 .61-.138.813-.346l4.064-4.15 1.354 1.383-4.064 4.15c-.541.692-1.286.97-2.1.97zM4.877 27.45L8.94 23.3a1.16 1.16 0 00.338-.83c0-.346-.135-.623-.338-.9l-1.897-1.937a1.11 1.11 0 00-.813-.346c-.338 0-.61.139-.812.346l-4.064 4.15L0 22.4l4.064-4.15c.61-.623 1.287-.9 2.167-.9.881 0 1.626.277 2.168.9l1.897 1.937c.61.622.88 1.314.88 2.213 0 .9-.27 1.66-.88 2.214l-4.065 4.15-1.354-1.314zm123.274-3.32h-16.053c-1.422 0-2.574-.484-3.454-1.452-.881-.969-1.287-2.214-1.287-3.736v-8.715c0-1.315.474-2.421 1.422-3.39.949-.968 2.1-1.452 3.387-1.452h15.985V.958h-15.985c-2.506 0-4.674.899-6.435 2.697-1.828 1.799-2.709 4.012-2.709 6.572v8.715c0 2.767.813 5.05 2.506 6.918 1.693 1.867 3.861 2.767 6.638 2.767h15.985V24.13zM76.944 6.837c.949-.968 2.1-1.452 3.387-1.452h15.985V.958H80.331c-2.506 0-4.674.899-6.435 2.697-1.829 1.799-2.709 4.012-2.709 6.572v8.715c0 2.767.813 5.05 2.506 6.918 1.694 1.867 3.86 2.767 6.638 2.767h15.985V24.13H80.263c-1.422 0-2.574-.485-3.454-1.453-.88-.969-1.287-2.214-1.287-3.736V16.66h12.395v-4.427H75.522v-2.006c0-1.315.474-2.421 1.422-3.39zm81.079 17.293H141.97c-1.423 0-2.574-.484-3.455-1.452-.88-.969-1.287-2.214-1.287-3.736v-8.715c0-1.315.475-2.421 1.423-3.39.948-.968 2.1-1.452 3.387-1.452h15.985V.958h-15.985c-2.507 0-4.674.899-6.435 2.697-1.829 1.799-2.709 4.012-2.709 6.572v8.715c0 2.767.812 5.05 2.506 6.918 1.693 1.867 3.86 2.767 6.638 2.767h15.985V24.13zm-99.028 4.497V10.365c0-1.245-.474-2.421-1.49-3.39-1.016-.968-2.1-1.452-3.387-1.452h-8.67c-1.286 0-2.438.484-3.386 1.453-.948.968-1.422 2.075-1.422 3.389v18.262h-4.403V10.365c0-2.49.948-4.704 2.777-6.571C40.843 1.926 43.01.958 45.448.958h8.67c2.439 0 4.606.968 6.435 2.836 1.829 1.867 2.777 4.08 2.777 6.571v18.262h-4.335zm151.791 0h-8.602c-2.709 0-4.944-.969-6.638-2.836-1.693-1.868-2.506-4.15-2.506-6.918v-8.577c0-2.49.881-4.704 2.709-6.572 1.829-1.867 3.929-2.766 6.435-2.766h8.602c2.439 0 4.606.899 6.435 2.766 1.829 1.868 2.709 4.012 2.709 6.572v8.577c0 2.56-.88 4.842-2.641 6.78-1.762 2.005-3.929 2.974-6.503 2.974zm4.809-18.331c0-1.314-.474-2.49-1.422-3.459-.948-.968-2.1-1.452-3.387-1.452h-8.602c-1.287 0-2.438.484-3.387 1.452-.948.969-1.422 2.145-1.422 3.459v8.577c0 1.591.406 2.836 1.287 3.805.88.968 2.032 1.453 3.522 1.453h8.467c1.354 0 2.506-.485 3.454-1.522a5.298 5.298 0 001.422-3.667v-8.646h.068zm34.07 18.331V10.365c0-1.245-.474-2.421-1.49-3.39-1.016-.968-2.1-1.452-3.387-1.452h-8.67c-1.287 0-2.371.484-3.387 1.453-.948.968-1.422 2.075-1.422 3.389v18.262h-4.403V10.365c0-2.49.948-4.704 2.777-6.571 1.829-1.868 3.997-2.836 6.435-2.836h8.67c2.438 0 4.606.968 6.435 2.836C253.051 5.66 254 7.874 254 10.365v18.262h-4.335zM189.043.958h-25.129v4.427h10.43v23.242h4.335V5.385h10.364V.958z" fill="#fff"/></svg>