<svg width="16" height="15" viewBox="0 0 16 15" fill="none" xmlns="http://www.w3.org/2000/svg">
<path d="M2.27785 3.55766C3.25973 3.55766 4.0557 2.76169 4.0557 1.7798C4.0557 0.797924 3.25973 0.00195312 2.27785 0.00195312C1.29597 0.00195312 0.5 0.797924 0.5 1.7798C0.5 2.76169 1.29597 3.55766 2.27785 3.55766Z" fill="white"/>
<path d="M5.73407 4.9049V14.7684H8.79656V9.89068C8.79656 8.60361 9.03869 7.35716 10.6345 7.35716C12.2084 7.35716 12.2279 8.82868 12.2279 9.97194V14.7692H15.2921V9.36009C15.2921 6.70306 14.72 4.66113 11.6145 4.66113C10.1234 4.66113 9.12401 5.47937 8.7153 6.25372H8.67386V4.9049H5.73407ZM0.743408 4.9049H3.81077V14.7684H0.743408V4.9049Z" fill="white"/>
</svg>
