<svg width="18" height="13" viewBox="0 0 18 13" fill="none" xmlns="http://www.w3.org/2000/svg">
<path d="M17.6201 1.88255C17.4301 1.16613 16.8127 0.584043 16.0053 0.360162C14.5805 0.00195321 8.97625 0.00195312 8.97625 0.00195312C8.97625 0.00195312 3.32453 0.00195321 1.94723 0.360162C1.18733 0.539267 0.569922 1.12136 0.379949 1.88255C1.44372e-06 3.22583 0 6.00195 0 6.00195C0 6.00195 1.44372e-06 8.77807 0.379949 10.1214C0.569922 10.8378 1.18733 11.4199 1.94723 11.6437C3.37203 12.002 8.97625 12.002 8.97625 12.002C8.97625 12.002 14.628 12.002 16.0053 11.6437C16.7652 11.4646 17.3826 10.8826 17.6201 10.1214C18 8.77807 18 6.00195 18 6.00195C18 6.00195 18 3.22583 17.6201 1.88255ZM7.1715 8.55419V3.49449L11.8734 6.00195L7.1715 8.55419Z" fill="white"/>
</svg>
