<svg width="32" height="32" viewBox="0 0 32 32" fill="none" xmlns="http://www.w3.org/2000/svg"><g clip-path="url(#clip0)"><path d="M28.563 20.733a3.443 3.443 0 00-3.307 2.5h-3.319v-3.66h3.389A6.682 6.682 0 0032 12.899a6.698 6.698 0 00-4.735-6.387A7.63 7.63 0 0019.874.737a7.548 7.548 0 00-3.82 1.023A6.66 6.66 0 0011.551.017a6.682 6.682 0 00-6.67 6.452A6.685 6.685 0 000 12.9a6.682 6.682 0 006.674 6.674h3.388v3.66H6.745a3.443 3.443 0 00-3.306-2.5A3.441 3.441 0 000 24.17a3.441 3.441 0 003.438 3.438 3.443 3.443 0 003.306-2.5H11c.518 0 .938-.42.938-.938v-4.597h3.124v5.665a3.443 3.443 0 00-2.5 3.307A3.441 3.441 0 0016 31.983a3.441 3.441 0 003.438-3.438 3.443 3.443 0 00-2.5-3.307v-5.665h3.125v4.597c0 .518.42.938.937.938h4.256a3.443 3.443 0 003.306 2.5A3.441 3.441 0 0032 24.17a3.441 3.441 0 00-3.438-3.438zm-25.125 5a1.564 1.564 0 01-1.563-1.563c0-.862.7-1.563 1.563-1.563.861 0 1.562.701 1.562 1.563 0 .861-.7 1.563-1.563 1.563zm14.124 2.812c0 .861-.7 1.563-1.562 1.563a1.564 1.564 0 01-1.563-1.563c0-.862.701-1.563 1.563-1.563s1.563.701 1.563 1.563zM6.675 17.698a4.805 4.805 0 01-4.799-4.8c0-2.365 1.763-4.406 4.1-4.748a.937.937 0 00.798-1.014 4.805 4.805 0 014.779-5.244c1.412 0 2.744.614 3.653 1.684.32.376.875.44 1.272.147a5.672 5.672 0 013.397-1.111 5.753 5.753 0 015.666 4.814.938.938 0 00.74.768 4.813 4.813 0 013.845 4.705 4.805 4.805 0 01-4.8 4.799H6.676zm21.889 8.035A1.564 1.564 0 0127 24.17c0-.862.7-1.563 1.563-1.563.861 0 1.562.701 1.562 1.563 0 .861-.7 1.563-1.563 1.563z" fill="#E78238"/></g><defs><clipPath id="clip0"><path fill="#fff" d="M0 0h32v32H0z"/></clipPath></defs></svg>