<svg width="32" height="32" viewBox="0 0 32 32" fill="none" xmlns="http://www.w3.org/2000/svg"><g clip-path="url(#clip0)"><path d="M16.887 17.132v.048l.05.002c3.79.094 7.33.763 10.057 1.905 3.21 1.345 4.956 3.224 4.956 5.28 0 2.057-1.745 3.936-4.956 5.281-2.95 1.236-6.854 1.918-10.994 1.918s-8.044-.682-10.994-1.918C1.796 28.303.05 26.424.05 24.368c0-2.057 1.745-3.936 4.956-5.281 2.726-1.142 6.268-1.81 10.058-1.905l.049-.002V1.324a.888.888 0 011.774 0v.273l.065-.02c2.378-.726 4.446-.095 6.471.526l.015-.048-.015.048h.002c1.995.611 4.069 1.247 6.724.758l-.01-.05.01.05c.366-.068.735.1.924.42l.043-.025-.043.026c.19.32.16.724-.075 1.012l-3.33 4.088-.026.032.026.031 3.321 3.956.039-.032-.039.032a.887.887 0 01.156.871l.047.017-.047-.017a.888.888 0 01-.675.573c-.779.143-1.513.204-2.21.204-2.056 0-3.781-.528-5.357-1.01l-.003-.002c-2.145-.657-3.889-1.191-5.982-.326l-.03.013v4.408zm.032-13.66l-.031.013v7.35l.064-.02c2.378-.726 4.446-.094 6.471.526h0c1.551.475 3.151.965 5.033.93l.105-.002-.067-.08-2.683-3.196-.039.032.039-.032a.887.887 0 01-.009-1.131l2.42-2.97.065-.081h-.104c-2.023-.014-3.724-.535-5.28-1.011l-.003-.001c-2.145-.657-3.889-1.191-5.981-.326zm.02 19.345l-.052-.001v1.174a.888.888 0 01-1.774 0v-1.174l-.052.002c-1.534.056-2.977.251-4.135.564-.667.18-1.135.37-1.453.539-.318.167-.49.314-.564.406l-.024.031.024.031c.073.093.246.24.564.407.319.168.786.358 1.453.538 1.392.376 3.194.583 5.074.583s3.682-.207 5.074-.583c.667-.18 1.134-.37 1.453-.538.318-.168.49-.314.564-.407l.024-.03-.024-.032c-.073-.092-.246-.239-.564-.406-.319-.168-.786-.359-1.453-.539-1.158-.313-2.6-.508-4.135-.565zm-1.826-3.81v-.051l-.052.001c-3.914.102-7.218.831-9.544 1.844-1.163.506-2.084 1.083-2.716 1.69-.63.606-.976 1.246-.976 1.877 0 .655.373 1.32 1.053 1.948.68.628 1.67 1.223 2.919 1.737 2.498 1.029 6.036 1.738 10.203 1.738s7.705-.71 10.203-1.738c1.249-.514 2.24-1.109 2.92-1.737.678-.628 1.052-1.293 1.052-1.948 0-.63-.346-1.27-.976-1.877-.632-.607-1.553-1.184-2.716-1.69-2.326-1.012-5.63-1.742-9.544-1.844l-.052-.001v2.084l.049.001c1.876.065 3.62.321 4.989.739.831.254 1.496.56 1.977.906.828.598.998 1.242.998 1.672 0 .43-.17 1.074-.998 1.672-.481.347-1.146.653-1.977.907-1.594.486-3.698.755-5.925.755s-4.331-.269-5.925-.755c-.831-.254-1.496-.56-1.977-.907-.829-.598-.998-1.242-.998-1.672 0-.43.17-1.074.998-1.672.481-.347 1.146-.652 1.977-.906 1.368-.418 3.113-.674 4.99-.739l.048-.001v-2.033z" fill="#E78238" stroke="#F5F7FC" stroke-width=".1"/></g><defs><clipPath id="clip0"><path fill="#fff" transform="translate(0 .001)" d="M0 0h32v32H0z"/></clipPath></defs></svg>