<svg width="32" height="32" viewBox="0 0 32 32" fill="none" xmlns="http://www.w3.org/2000/svg"><path fill-rule="evenodd" clip-rule="evenodd" d="M21.772 3.389a.926.926 0 01-1.348-1.152l.752-1.689a.924.924 0 011.69.752l-.753 1.69a.924.924 0 01-.341.399zm-11.036.15a.926.926 0 00.843-1.302L10.827.548a.925.925 0 00-1.69.752l.753 1.69a.925.925 0 00.846.548zm13.292 14.866a9.598 9.598 0 01-2.739 3.081.498.498 0 00-.2.409v1.233a2.773 2.773 0 01-.462 5.015v1.084A2.776 2.776 0 0117.852 32h-3.7a2.778 2.778 0 01-2.774-2.773v-1.083a2.772 2.772 0 01-.462-5.015v-1.234a.497.497 0 00-.198-.407 9.539 9.539 0 01-3.964-7.744c-.01-5.153 4.08-9.404 9.116-9.476a9.08 9.08 0 016.549 2.646 9.595 9.595 0 011.61 11.492zm-8.13-12.288c-4.03.058-7.302 3.477-7.294 7.623a7.682 7.682 0 003.189 6.243 2.347 2.347 0 01.973 1.912v.86h6.474v-.86a2.35 2.35 0 01.975-1.913 7.75 7.75 0 002.703-8.957 7.747 7.747 0 00-1.797-2.794 7.25 7.25 0 00-5.118-2.115h-.053l-.053.001zm-1.745 24.034h3.7a.926.926 0 00.924-.924v-.925h-5.549v.925a.925.925 0 00.925.924zm-1.85-3.698h7.4a.925.925 0 100-1.848h-7.4a.925.925 0 000 1.848zm6.719-15.256a4.18 4.18 0 00-1.518-1.089.925.925 0 11.7-1.711 6.044 6.044 0 013.49 3.94.924.924 0 01-1.78.501 4.177 4.177 0 00-.892-1.64zm-14.509-1.18a.924.924 0 01-1.11 1.3l-1.758-.572a.925.925 0 11.57-1.758l1.76.571a.925.925 0 01.538.46zm23.803 1.345a.926.926 0 00.286-.046l1.76-.571a.926.926 0 00.417-1.48.925.925 0 00-.99-.278l-1.758.57a.925.925 0 00.285 1.805z" fill="#E78238"/></svg>