<?xml version="1.0" encoding="utf-8"?><svg viewBox="0 0 32 32" xmlns="http://www.w3.org/2000/svg" xmlns:xlink="http://www.w3.org/1999/xlink"><style>:root>svg{display:none}:root>svg:target{display:block}</style><svg fill="none" viewBox="0 0 25 12" id="ic-arrow" xmlns="http://www.w3.org/2000/svg"><path d="M24.495 6.495a.7.7 0 000-.99L20.04 1.05a.7.7 0 10-.99.99L23.01 6l-3.96 3.96a.7.7 0 10.99.99l4.455-4.455zM0 6.7h24V5.3H0v1.4z" fill="#232228"/></svg><svg fill="none" viewBox="0 0 32 32" id="ic-data" xmlns="http://www.w3.org/2000/svg"><g clip-path="url(#bclip0)"><path d="M28.563 20.733a3.443 3.443 0 00-3.307 2.5h-3.319v-3.66h3.389A6.682 6.682 0 0032 12.899a6.698 6.698 0 00-4.735-6.387A7.63 7.63 0 0019.874.737a7.548 7.548 0 00-3.82 1.023A6.66 6.66 0 0011.551.017a6.682 6.682 0 00-6.67 6.452A6.685 6.685 0 000 12.9a6.682 6.682 0 006.674 6.674h3.388v3.66H6.745a3.443 3.443 0 00-3.306-2.5A3.441 3.441 0 000 24.17a3.441 3.441 0 003.438 3.438 3.443 3.443 0 003.306-2.5H11c.518 0 .938-.42.938-.938v-4.597h3.124v5.665a3.443 3.443 0 00-2.5 3.307A3.441 3.441 0 0016 31.983a3.441 3.441 0 003.438-3.438 3.443 3.443 0 00-2.5-3.307v-5.665h3.125v4.597c0 .518.42.938.937.938h4.256a3.443 3.443 0 003.306 2.5A3.441 3.441 0 0032 24.17a3.441 3.441 0 00-3.438-3.438zm-25.125 5a1.564 1.564 0 01-1.563-1.563c0-.862.7-1.563 1.563-1.563.861 0 1.562.701 1.562 1.563 0 .861-.7 1.563-1.563 1.563zm14.124 2.812c0 .861-.7 1.563-1.562 1.563a1.564 1.564 0 01-1.563-1.563c0-.862.701-1.563 1.563-1.563s1.563.701 1.563 1.563zM6.675 17.698a4.805 4.805 0 01-4.799-4.8c0-2.365 1.763-4.406 4.1-4.748a.937.937 0 00.798-1.014 4.805 4.805 0 014.779-5.244c1.412 0 2.744.614 3.653 1.684.32.376.875.44 1.272.147a5.672 5.672 0 013.397-1.111 5.753 5.753 0 015.666 4.814c.063.385.358.691.74.768a4.813 4.813 0 013.845 4.705c0 2.646-2.153 4.799-4.8 4.799H6.676zm21.889 8.035A1.564 1.564 0 0127 24.17c0-.862.7-1.563 1.563-1.563.861 0 1.562.701 1.562 1.563 0 .861-.7 1.563-1.563 1.563z" fill="#E78238"/></g><defs><clipPath id="bclip0"><path fill="#fff" d="M0 0h32v32H0z"/></clipPath></defs></svg><svg fill="none" viewBox="0 0 32 32" id="ic-goal" xmlns="http://www.w3.org/2000/svg"><g clip-path="url(#cclip0)"><path d="M16.887 17.132v.048l.05.002c3.79.094 7.33.763 10.057 1.905 3.21 1.345 4.956 3.224 4.956 5.28 0 2.057-1.745 3.936-4.956 5.281-2.95 1.236-6.854 1.918-10.994 1.918s-8.044-.682-10.994-1.918C1.796 28.303.05 26.424.05 24.368c0-2.057 1.745-3.936 4.956-5.281 2.726-1.142 6.268-1.81 10.058-1.905l.049-.002V1.324a.888.888 0 011.774 0v.273l.065-.02c2.378-.726 4.446-.095 6.471.526l.015-.048-.015.048h.002c1.995.611 4.069 1.247 6.724.758l-.01-.05.01.05c.366-.068.735.1.924.42l.043-.025-.043.026c.19.32.16.724-.075 1.012l-3.33 4.088-.026.032.026.031 3.321 3.956.039-.032-.039.032a.887.887 0 01.156.871l.047.017-.047-.017a.888.888 0 01-.675.573c-.779.143-1.513.204-2.21.204-2.056 0-3.781-.528-5.357-1.01l-.003-.002c-2.145-.657-3.889-1.191-5.982-.326l-.03.013v4.408zm.032-13.66l-.031.013v7.35l.064-.02c2.378-.726 4.446-.094 6.471.526h0c1.551.475 3.151.965 5.033.93l.105-.002-.067-.08-2.683-3.196-.039.032.039-.032a.887.887 0 01-.009-1.131l2.42-2.97.065-.081h-.104c-2.023-.014-3.724-.535-5.28-1.011l-.003-.001c-2.145-.657-3.889-1.191-5.981-.326zm.02 19.345l-.052-.001V23.99a.888.888 0 01-1.774 0V22.816l-.052.002c-1.534.056-2.977.251-4.135.564-.667.18-1.135.37-1.453.539-.318.167-.49.314-.564.406l-.024.031.024.031c.073.093.246.24.564.407.319.168.786.358 1.453.538 1.392.376 3.194.583 5.074.583s3.682-.207 5.074-.583c.667-.18 1.134-.37 1.453-.538.318-.168.49-.314.564-.407l.024-.03-.024-.032c-.073-.092-.246-.239-.564-.406-.319-.168-.786-.359-1.453-.539-1.158-.313-2.6-.508-4.135-.565zm-1.826-3.81v-.051l-.052.001c-3.914.102-7.218.831-9.544 1.844-1.163.506-2.084 1.083-2.716 1.69-.63.606-.976 1.246-.976 1.877 0 .655.373 1.32 1.053 1.948.68.628 1.67 1.223 2.919 1.737 2.498 1.029 6.036 1.738 10.203 1.738s7.705-.71 10.203-1.738c1.249-.514 2.24-1.109 2.92-1.737.678-.628 1.052-1.293 1.052-1.948 0-.63-.346-1.27-.976-1.877-.632-.607-1.553-1.184-2.716-1.69-2.326-1.012-5.63-1.742-9.544-1.844l-.052-.001v2.084l.049.001c1.876.065 3.62.321 4.989.739.831.254 1.496.56 1.977.906.828.598.998 1.242.998 1.672 0 .43-.17 1.074-.998 1.672-.481.347-1.146.653-1.977.907-1.594.486-3.698.755-5.925.755s-4.331-.269-5.925-.755c-.831-.254-1.496-.56-1.977-.907-.829-.598-.998-1.242-.998-1.672 0-.43.17-1.074.998-1.672.481-.347 1.146-.652 1.977-.906 1.368-.418 3.113-.674 4.99-.739l.048-.001v-2.033z" fill="#E78238" stroke="#F5F7FC" stroke-width=".1"/></g><defs><clipPath id="cclip0"><path fill="#fff" transform="translate(0 .001)" d="M0 0h32v32H0z"/></clipPath></defs></svg><svg fill="none" viewBox="0 0 32 32" id="ic-opportunity" xmlns="http://www.w3.org/2000/svg"><path fill-rule="evenodd" clip-rule="evenodd" d="M21.772 3.389a.926.926 0 01-1.348-1.152l.752-1.689a.924.924 0 011.69.752l-.753 1.69a.924.924 0 01-.341.399zm-11.036.15a.926.926 0 00.843-1.302L10.827.548a.925.925 0 00-1.69.752l.753 1.69a.925.925 0 00.846.548zm13.292 14.866a9.598 9.598 0 01-2.739 3.081.498.498 0 00-.2.409v1.233a2.773 2.773 0 01-.462 5.015v1.084A2.776 2.776 0 0117.852 32h-3.7a2.778 2.778 0 01-2.774-2.773v-1.083a2.772 2.772 0 01-.462-5.015v-1.234a.497.497 0 00-.198-.407 9.539 9.539 0 01-3.964-7.744c-.01-5.153 4.08-9.404 9.116-9.476a9.08 9.08 0 016.549 2.646 9.595 9.595 0 011.61 11.492zm-8.13-12.288c-4.03.058-7.302 3.477-7.294 7.623a7.682 7.682 0 003.189 6.243 2.347 2.347 0 01.973 1.912v.86h6.474v-.86a2.35 2.35 0 01.975-1.913 7.75 7.75 0 002.703-8.957 7.747 7.747 0 00-1.797-2.794 7.25 7.25 0 00-5.118-2.115h-.053l-.053.001zm-1.745 24.034h3.7a.926.926 0 00.924-.924v-.925h-5.549v.925a.925.925 0 00.925.924zm-1.85-3.698h7.4a.925.925 0 100-1.848h-7.4a.925.925 0 000 1.848zm6.719-15.256a4.18 4.18 0 00-1.518-1.089.925.925 0 11.7-1.711 6.044 6.044 0 013.49 3.94.924.924 0 01-1.78.501 4.177 4.177 0 00-.892-1.64zm-14.509-1.18a.924.924 0 01-1.11 1.3l-1.758-.572a.925.925 0 11.57-1.758l1.76.571a.925.925 0 01.538.46zm23.803 1.345a.926.926 0 00.286-.046l1.76-.571a.926.926 0 00.417-1.48.925.925 0 00-.99-.278l-1.758.57a.925.925 0 00.285 1.805z" fill="#E78238"/></svg></svg>