<svg xmlns="http://www.w3.org/2000/svg" viewBox="0 0 184 42">
  <path fill="#C0A472" d="M11.2 21l-1.9-1.6H8.1v-1.1l-1.5-1.9L5 18.3v1.1H3.7L1.9 21l1.8 1.6H5v1.3l1.6 1.7 1.5-1.7v-1.3h1.2zM182.1 21l-2-1.6H179v-1.1l-1.6-1.9-1.5 1.9v1.1h-1.4l-1.7 1.6 1.7 1.6h1.4v1.3l1.5 1.7 1.6-1.7v-1.3h1.1z"/>
  <g fill="#C0A472">
    <path d="M21.7 9.7h1l5.2-.1c4.3 0 7.5 1 9.6 2.9 2.1 1.9 3.2 4.8 3.2 8.5 0 2.4-.5 4.5-1.6 6.3-1 1.8-2.5 3.2-4.5 4.2s-4.3 1.5-7 1.5h-4.8l-5.1.1v-.7c.7 0 1.3-.1 1.6-.3.3-.1.6-.4.7-.8l.2-1.8V13.1l-.2-1.8c-.1-.4-.4-.6-.7-.8l-1.6-.3v-.6l4 .1zm3.9 21.6c.1.4.4.7.7.8.3.2.9.2 1.6.2 1.8 0 3.3-.4 4.3-1.3a7.3 7.3 0 002.3-3.7c.5-1.6.7-3.7.7-6.2s-.2-4.5-.7-6.1a6.8 6.8 0 00-2.4-3.6 7 7 0 00-4.3-1.2l-1.5.2c-.3.2-.6.4-.7.8l-.2 1.8v16.5l.2 1.8zM63.4 32.9c-.7.3-1.5.5-2.5.5-1.3 0-2.3-.3-3-.8-.7-.5-1.2-1.5-1.4-2.8l-.6-3.3a26 26 0 00-.6-2.6c-.2-.6-.5-1.2-.9-1.5-.4-.4-.9-.6-1.6-.6h-2.1v7.6l.2 1.8c.1.4.3.6.7.8l1.6.3v.7l-5-.1-5.2.1v-.7c.7 0 1.3-.1 1.6-.3.3-.1.6-.4.7-.8l.2-1.8V13.1l-.2-1.8c-.1-.4-.4-.6-.7-.8l-1.6-.3v-.6l5 .1h5.1c3 0 5.3.5 6.8 1.5s2.3 2.4 2.3 4.2c0 1-.2 1.9-.7 2.8-.5.9-1.2 1.6-2.3 2.3a12 12 0 01-4.4 1.3c1.3.1 2.4.3 3.3.7.9.3 1.5.8 2 1.4.5.6.8 1.4 1 2.3l.8 3.4.6 1.8c.2.3.6.5 1 .5l.7-.2.6-.6.5.4c-.6.6-1.3 1.1-1.9 1.4zM55 20.5c.7-.5 1.2-1.1 1.4-1.9.3-.8.4-1.7.4-2.9 0-1.8-.3-3.2-1-4.1-.6-.9-1.7-1.4-3.1-1.4a4 4 0 00-1.3.2c-.3.2-.5.4-.6.8l-.2 1.8v8.1H52c1.3.1 2.3-.2 3-.6z"/>
    <g>
      <path d="M119.7 21.7c1.2.6 2.1 1.3 2.7 2.1.6.8.8 1.7.8 2.7 0 1.4-.4 2.5-1.1 3.5-.7 1-1.8 1.7-3.1 2.2-1.4.5-3 .7-4.9.7h-5.8l-5.1.1v-.7c.7 0 1.3-.1 1.6-.3.3-.1.6-.4.7-.8l.2-1.8V13.1l-.2-1.8c-.1-.4-.4-.6-.7-.8l-1.6-.3v-.6l5 .1h5.1c1.8 0 3.3.2 4.5.7 1.2.4 2.1 1 2.7 1.8.6.8.9 1.7.9 2.7 0 .8-.2 1.6-.7 2.4-.5.8-1.2 1.5-2.2 2.1-1 .6-2.2 1-3.7 1.3v.1c2 0 3.6.4 4.9.9zm-4.4-2.6c.6-1 .9-2.3.9-3.9s-.3-2.9-.8-3.7c-.5-.8-1.3-1.2-2.5-1.2a4 4 0 00-1.3.2c-.3.2-.5.4-.6.8l-.2 1.8v7.4h1.4c1.5 0 2.5-.5 3.1-1.4zM111 31.2c.1.4.3.6.6.8l1.5.2c3.1 0 4.6-1.9 4.6-5.8 0-1.7-.4-3-1.3-3.9-.9-.9-2.3-1.4-4.2-1.4h-1.4v8.3l.2 1.8zM143.2 27.9l.2 5-7.5-.1-10.7.1v-.7c.7 0 1.3-.1 1.6-.3.3-.1.6-.4.7-.8l.2-1.8V13.1l-.2-1.8c-.1-.4-.4-.6-.7-.8l-1.6-.3v-.6l10.7.1 6.9-.1c-.2 1.8-.2 3.4-.2 4.9l.1 2.2h-.8c-.2-1.6-.6-2.9-1-3.8-.5-.9-1-1.6-1.8-2-.7-.4-1.6-.6-2.6-.6h-1.3l-1.5.2c-.3.1-.5.3-.6.6l-.2 1.5v8.2h1c1.2 0 2.1-.4 2.7-1.3.6-.9 1-1.9 1.3-3.1h.8l-.1 3.1v1.6l.2 4.7h-.8c-.4-2.9-1.8-4.4-4-4.4h-1v8.3l.2 1.5c.1.3.3.5.6.6l1.5.2h1.6a5 5 0 003.8-1.6c1-1.1 1.6-2.9 2-5.4h.8a13 13 0 00-.3 2.9zM146 15.2l-.2-5.6 10.2.1 10.1-.1c-.2 2.2-.2 4.1-.2 5.6l.1 2.5h-.8c-.4-1.8-.8-3.3-1.3-4.3a5.6 5.6 0 00-1.9-2.3c-.7-.5-1.6-.7-2.7-.7h-.8v18.8c0 .9.1 1.6.3 2 .2.4.5.7 1 .9l2.2.2v.7l-6.3-.1-6 .1v-.7l2.3-.2c.5-.1.8-.4 1-.9a5 5 0 00.3-2V10.3h-.7c-1.1 0-2 .2-2.7.7-.7.5-1.4 1.2-1.9 2.3-.5 1.1-1 2.5-1.4 4.4h-.8c.2-.7.2-1.6.2-2.5z"/>
    </g>
  </g>
  <g fill="#C0A471">
    <path d="M88.6 31.1l1 .1c2.2 0 3.3-1.4 3.3-4.1 0-1.2-.3-2.2-.9-2.8-.6-.6-1.6-1-3-1h-1v5.9l.1 1.3c.1.3.3.5.5.6zM91.2 21.9c.4-.7.6-1.6.6-2.8 0-1.2-.2-2.1-.6-2.6a2 2 0 00-1.8-.9l-.9.2c-.2.1-.3.3-.4.6l-.1 1.3V23h1c1.1-.1 1.8-.4 2.2-1.1z"/>
    <path d="M70.3 6.3V28c0 2.2 1.4 4.3 3.6 5.5l10.3 5.3 10.3-5.3c2.2-1.2 3.6-3.2 3.6-5.5V6.3L84.3 3.1l-14 3.2zm19.5 8.8c1.3 0 2.3.2 3.2.5.9.3 1.5.7 2 1.3.4.6.7 1.2.7 1.9 0 .6-.2 1.2-.5 1.7-.3.6-.9 1.1-1.6 1.5-.7.4-1.6.7-2.6.9 1.4.1 2.5.4 3.4.8.9.4 1.5.9 1.9 1.5.4.6.6 1.2.6 1.9 0 1-.3 1.8-.8 2.5s-1.3 1.2-2.2 1.6c-1 .3-2.1.5-3.5.5h-4.2l-3.6.1v-.5l1.1-.2c.2-.1.4-.3.5-.6l.1-1.3V17.6l-.1-1.3a1 1 0 00-.5-.6l-1.1-.2V15l3.6.1h3.6zm-2-1.5H84c-.1-1-.2-1.9-.5-2.7-.4-1.1-.9-2-1.7-2.6-.8-.6-1.8-.8-3-.8l-1.1.2a1 1 0 00-.5.6L77 9.5v11.8l.1 1.3c.1.3.3.5.5.6l1.1.2a5 5 0 003.1-.9c.3-.2.6-.5.8-.9v1.5a13 13 0 01-4.1.7H75.1l-3.6.1v-.5l1.1-.2c.2-.1.4-.3.5-.6l.1-1.3V9.6l-.1-1.3c-.1-.3-.3-.4-.5-.6l-1.1-.2v-.4l2.8.1h.7l3.7-.1c3.1 0 5.4.7 6.9 2.1a6 6 0 012.2 4.4z"/>
    <path d="M84.3.5L68 4.3v24.1c0 2.9 1.8 5.7 4.7 7.2l11.6 6 11.6-6a8.2 8.2 0 004.7-7.2V4.3L84.3.5zM99.7 28c0 2.8-1.7 5.4-4.4 6.8l-11 5.7-11-5.7a7.8 7.8 0 01-4.4-6.8V5.2l15.4-3.6 15.4 3.6V28z"/>
  </g>
</svg>
