<svg width="918" height="959" viewBox="0 0 918 959" fill="none" xmlns="http://www.w3.org/2000/svg">
<path d="M529.914 360.587C548.79 371.569 560.774 384.901 568.151 403.565L589.542 469.009C596.139 489.194 593.632 508.767 585.086 525.438C575.774 543.604 560.474 555.125 539.854 562.237L475.401 584.468C457.121 590.773 438.934 589.573 420.81 580.849C402.694 572.128 390.714 558.814 384.115 538.624L362.719 473.167C356.863 455.25 358.577 437.196 367.184 416.721C376.513 398.532 390.311 386.304 408.586 380L473.039 357.77C491.33 351.461 511.81 351.878 529.914 360.587Z" stroke="white" stroke-opacity="0.21"/>
<path d="M529.354 870.415L484.269 885.965L439.381 752.537C432.783 732.352 434.508 714.304 444.618 694.582C454.737 674.844 469.319 661.106 489.084 655.534L489.098 655.53L489.113 655.525L553.566 633.294C574.15 626.194 592.337 627.397 611.978 636.852C631.637 646.315 645.109 660.364 650.185 679.78L650.189 679.794L650.194 679.808L694.309 814.776L651.53 829.531L607.419 694.578C605.17 687.696 600.572 681.607 592.839 677.884C583.599 673.436 575.815 673.553 568.781 675.979L504.328 698.21C497.309 700.63 491.03 705.352 487.054 713.108C483.079 720.864 482.989 728.565 485.238 735.447L529.354 870.415Z" stroke="white" stroke-opacity="0.21"/>
<path d="M298.395 288.191L298.391 288.177L298.387 288.163L254.271 153.195L297.05 138.441L341.161 273.393C343.41 280.275 348.008 286.365 355.741 290.088C364.981 294.535 372.765 294.419 379.799 291.992L444.252 269.761C451.271 267.34 457.55 262.619 461.525 254.863C465.501 247.107 465.591 239.406 463.342 232.524L419.226 97.5561L464.307 82.0072L508.417 216.96C515.015 237.145 513.29 255.193 503.18 274.914C493.061 294.653 478.479 308.39 458.714 313.962L458.7 313.966L458.685 313.971L394.246 336.197C374.44 341.777 354.728 339.844 336.602 331.119C316.943 321.656 303.471 307.607 298.395 288.191Z" stroke="white" stroke-opacity="0.21"/>
<path d="M635.818 450.581L635.815 450.567L635.81 450.554L615.152 387.353C608.555 367.168 610.28 349.121 620.39 329.399C630.509 309.66 645.091 295.923 664.856 290.35L664.87 290.346L664.885 290.341L802.512 242.872L816.223 284.82L678.58 332.295C671.561 334.715 665.283 339.437 661.307 347.193C657.328 354.953 657.251 362.639 658.692 370.99L658.698 371.029L658.711 371.066L680.148 432.732C680.149 432.734 680.149 432.735 680.15 432.737C682.4 439.617 686.997 445.705 694.729 449.427C702.463 453.149 710.248 453.021 717.267 450.6L854.894 403.13L869.343 447.335L731.7 494.81L731.673 494.819L731.648 494.831C711.836 504.155 692.154 502.236 674.025 493.509C654.367 484.047 640.895 469.997 635.818 450.581Z" stroke="white" stroke-opacity="0.21"/>
<path d="M133.015 655.881L270.646 608.41C277.665 605.99 283.944 601.267 287.92 593.512C291.898 585.751 291.975 578.066 290.535 569.715L290.529 569.681L290.518 569.647L269.86 506.447C267.611 499.565 263.013 493.475 255.279 489.753C247.546 486.03 239.76 486.159 232.742 488.579L95.114 536.049L80.6653 491.845L218.309 444.37C238.893 437.27 257.08 438.472 276.721 447.927C296.379 457.39 309.851 471.439 314.928 490.855L314.931 490.869L314.936 490.883L335.594 554.083C342.191 574.268 340.466 592.316 330.356 612.038C320.237 631.776 305.656 645.513 285.89 651.086L285.876 651.09L285.862 651.095L148.222 698.568L133.015 655.881Z" stroke="white" stroke-opacity="0.21"/>
</svg>
