<svg width="24" height="24" viewBox="0 0 24 24" fill="none" xmlns="http://www.w3.org/2000/svg">
<g clip-path="url(#clip0)">
<path d="M12 24C18.6165 24 24 18.6169 24 12C24 10.8579 23.8406 9.73242 23.5249 8.65454C23.3694 8.12451 22.8159 7.82007 22.2844 7.97559C21.7539 8.13062 21.4504 8.68604 21.6055 9.21606C21.8669 10.1116 22 11.0486 22 12C22 17.5139 17.5139 22 12 22C6.48608 22 2 17.5139 2 12C2 6.48608 6.48608 2 12 2C14.0039 2 15.9319 2.58594 17.5754 3.69409C18.033 4.00293 18.655 3.88159 18.9634 3.42407C19.272 2.96606 19.1516 2.34448 18.6936 2.03589C16.7185 0.704102 14.4041 0 12 0C5.38354 0 0 5.38306 0 12C0 18.6169 5.38354 24 12 24Z" fill="#57B7C3"/>
<path d="M21.2928 3.73029L10.9998 14.0228L7.70685 10.7303C7.31622 10.3399 6.68341 10.3399 6.29279 10.7303C5.9024 11.1209 5.9024 11.7537 6.29279 12.1443L10.2928 16.1443C10.4883 16.3399 10.7437 16.4373 10.9998 16.4373C11.2559 16.4373 11.5113 16.3399 11.7068 16.1443L22.7068 5.14435C23.0972 4.75372 23.0972 4.12091 22.7068 3.73029C22.3162 3.3399 21.6834 3.3399 21.2928 3.73029Z" fill="#57B7C3"/>
</g>
<defs>
<clipPath id="clip0">
<rect width="24" height="24" fill="white"/>
</clipPath>
</defs>
</svg>
