<?xml version="1.0" encoding="utf-8"?>
<!-- Generator: Adobe Illustrator 23.0.6, SVG Export Plug-In . SVG Version: 6.00 Build 0)  -->
<svg version="1.1" id="Expanded" xmlns="http://www.w3.org/2000/svg" xmlns:xlink="http://www.w3.org/1999/xlink" x="0px" y="0px"
	 width="154px" height="35px" viewBox="0 0 154 35" style="enable-background:new 0 0 154 35;" xml:space="preserve">
<style type="text/css">
	.st0{fill-rule:evenodd;clip-rule:evenodd;fill:#FF333A;}
	.st1{fill:#FFFFFF;}
</style>
<path class="st0" d="M152,35H2c-1.105,0-2-0.895-2-2V2c0-1.105,0.895-2,2-2h150c1.105,0,2,0.895,2,2v31
	C154,34.105,153.105,35,152,35z"/>
<g>
	<path class="st1" d="M19.453,26.696l-0.69-3.093h-3.673l-0.663,3.093h-3.645l4.308-18.42H18.9l4.419,18.42H19.453z M18.21,20.759
		c-0.387-1.767-0.773-3.507-1.049-5.302c-0.111-0.801-0.221-1.629-0.304-2.43c-0.166,2.596-0.69,5.164-1.215,7.733H18.21z"/>
	<path class="st1" d="M32.166,12.446c-0.746-0.635-1.602-1.187-2.623-1.187c-1.077,0-1.823,0.718-1.823,1.795
		c0,3.176,5.523,3.121,5.523,8.257c0,3.176-1.905,5.689-5.247,5.689c-1.132,0-2.237-0.304-3.176-0.939v-3.48
		c0.828,0.552,1.685,0.994,2.706,0.994c1.243,0,2.154-0.773,2.154-2.044c0-0.331-0.055-0.635-0.193-0.939
		c-0.331-0.69-1.353-1.298-1.961-1.712c-2.071-1.436-3.397-2.762-3.397-5.44c0-2.9,1.685-5.44,4.805-5.44
		c1.243,0,2.154,0.276,3.231,0.884V12.446z"/>
	<path class="st1" d="M41.786,26.696l-3.397-9.362v9.362h-3.645V8.276h3.645v8.23l3.065-8.23h3.728l-3.397,8.506l3.811,9.914H41.786
		z"/>
	<path class="st1" d="M57.876,16.451c0.028,0.469,0.028,0.939,0.028,1.408c0,1.298-0.055,2.624-0.331,3.894
		C56.965,24.597,55.115,27,51.994,27c-4.971,0-6.545-5.358-6.545-9.445C45.449,13.33,46.83,8,51.994,8
		c2.817,0,4.639,1.767,5.413,4.363l-3.535,1.381c-0.166-1.077-0.469-2.541-1.85-2.541c-2.485,0-2.679,4.557-2.679,6.297
		c0,1.823,0.083,6.186,2.706,6.186c1.988,0,2.209-2.485,2.237-3.977h-2.32v-3.259H57.876z"/>
	<path class="st1" d="M66.842,26.696l-0.69-3.093h-3.673l-0.663,3.093h-3.645l4.308-18.42h3.811l4.419,18.42H66.842z M65.6,20.759
		c-0.387-1.767-0.773-3.507-1.049-5.302c-0.111-0.801-0.221-1.629-0.304-2.43c-0.166,2.596-0.69,5.164-1.215,7.733H65.6z"/>
	<path class="st1" d="M84.692,26.696L83.781,13.44c-0.083,1.436-0.304,2.844-0.552,4.253l-1.629,9.003H78.81l-1.712-8.34
		c-0.193-0.911-0.387-1.823-0.469-2.762l-0.221-2.154l-0.58,13.256h-3.894l1.602-18.42h4.805l1.795,10.881l1.464-10.881h4.916
		l1.905,18.42H84.692z"/>
	<path class="st1" d="M93.821,8.276c0.967,0,2.596,0.055,3.866,1.298c0.994,0.967,1.519,2.485,1.519,3.977
		c0,0.911-0.193,1.823-0.856,2.624c-0.304,0.359-0.773,0.801-1.464,1.077c1.187,0.442,1.767,1.27,1.988,1.629
		c0.525,0.884,0.635,1.906,0.635,2.596c0,1.381-0.359,2.624-1.381,3.645c-1.408,1.408-3.259,1.574-4.336,1.574h-3.866V8.276H93.821z
		 M93.572,15.843c0.58-0.028,1.243-0.276,1.602-0.635c0.525-0.525,0.58-1.298,0.58-1.712c0-0.442-0.055-1.132-0.58-1.657
		c-0.304-0.304-0.801-0.552-1.602-0.552V15.843z M93.572,23.548c0.58,0,1.243-0.193,1.657-0.58c0.387-0.359,0.69-0.994,0.69-1.795
		c0-0.884-0.304-1.547-0.718-1.933c-0.442-0.387-1.105-0.58-1.629-0.58V23.548z"/>
	<path class="st1" d="M101.272,26.696V8.276h3.645v14.968h3.811v3.452H101.272z"/>
	<path class="st1" d="M110.229,26.696V8.276h7.318v3.424h-3.673v3.977h3.231v3.48h-3.231v4.142h3.728v3.397H110.229z"/>
	<path class="st1" d="M126.238,26.696l-3.231-8.478v8.478h-3.645V8.276h3.949c1.353,0,2.844,0.111,4.004,0.884
		c1.464,0.967,2.182,2.762,2.182,4.474c0,2.099-0.828,3.59-2.623,4.695l3.203,8.368H126.238z M123.006,16.202
		c0.193,0.028,0.414,0.028,0.608,0.028c1.574,0,2.347-1.077,2.347-2.568s-0.663-2.513-2.264-2.513h-0.69V16.202z"/>
	<path class="st1" d="M138.923,12.446c-0.746-0.635-1.602-1.187-2.623-1.187c-1.077,0-1.823,0.718-1.823,1.795
		c0,3.176,5.523,3.121,5.523,8.257c0,3.176-1.906,5.689-5.247,5.689c-1.132,0-2.237-0.304-3.176-0.939v-3.48
		c0.828,0.552,1.685,0.994,2.706,0.994c1.243,0,2.154-0.773,2.154-2.044c0-0.331-0.055-0.635-0.193-0.939
		c-0.331-0.69-1.353-1.298-1.961-1.712c-2.071-1.436-3.397-2.762-3.397-5.44c0-2.9,1.685-5.44,4.805-5.44
		c1.243,0,2.154,0.276,3.231,0.884V12.446z"/>
	<circle class="st1" cx="142.821" cy="10.751" r="2.398"/>
</g>
</svg>
